<svg width="489" height="276" viewBox="0 0 489 276" fill="none" xmlns="http://www.w3.org/2000/svg">
    <path d="M-15.6939 6.1747C-23.9519 9.31934 -28.0972 18.5631 -24.9526 26.8212C-21.808 35.0792 -12.5642 39.2245 -4.30614 36.0799L-15.6939 6.1747ZM159.029 188.39L153.143 173.512V173.512L159.029 188.39ZM442.143 221.895C449.194 216.569 450.593 206.535 445.267 199.484C439.942 192.433 429.908 191.034 422.857 196.36L442.143 221.895ZM-4.30614 36.0799C9.88703 30.6752 15.7717 31.9181 17.6058 32.7504C18.7954 33.2903 21.2785 35.036 23.2251 42.9972C25.1706 50.9541 25.7291 61.8329 25.6126 75.4655C25.5555 82.146 25.3467 89.1213 25.1405 96.4464C24.9362 103.702 24.7359 111.258 24.717 118.783C24.6795 133.702 25.3389 149.368 28.4029 163.644C31.4613 177.894 37.2223 192.236 48.5324 203.005C72.2229 225.562 110.671 224.729 164.916 203.268L153.143 173.512C100.047 194.518 79.2661 188.082 70.5987 179.83C65.7299 175.194 62.0298 167.829 59.6904 156.929C57.3564 146.054 56.681 133.125 56.7169 118.864C56.7347 111.798 56.9231 104.617 57.1278 97.347C57.3306 90.146 57.551 82.806 57.6114 75.7391C57.7299 61.877 57.2768 47.5329 54.3094 35.3967C51.3429 23.2646 45.0115 10.0469 30.8304 3.61094C17.2936 -2.53255 1.25122 -0.277884 -15.6939 6.1747L-4.30614 36.0799ZM164.916 203.268C229.939 177.542 260.823 178.414 275.643 185.117C289.07 191.188 293.924 204.189 298.611 223.847C300.649 232.392 302.96 243.615 307.017 252.472C311.491 262.24 319.544 272.391 334.299 274.83C347.117 276.949 361.617 272.486 377.695 264.347C394.306 255.938 415.292 242.175 442.143 221.895L422.857 196.36C396.583 216.204 377.354 228.653 363.241 235.797C348.594 243.212 341.862 243.646 339.518 243.258C339.111 243.191 338.074 243.433 336.11 239.146C333.729 233.948 332.254 226.97 329.738 216.424C325.32 197.897 318 169.151 288.829 155.96C261.052 143.398 218.917 147.489 153.143 173.512L164.916 203.268Z" fill="#E2B4EB"/>
    <path d="M436.359 231.065C488.531 235.354 489.829 191.851 461.578 183.487C389.313 162.092 372.089 223.049 436.359 231.065Z" fill="#F9BCC2" stroke="#45AAEC" stroke-width="18"/>
</svg>
