<svg width="1440" height="2152" viewBox="0 0 1440 2152" fill="none" xmlns="http://www.w3.org/2000/svg">
<path d="M225.09 47.8115H180.072V95H225.09V47.8115H270.107V95H315.126V47.8115H360.144V95H405.162V47.8115H450.18V95H495.197V47.8115H540.215V0H585.233V47.8115H540.216V95H585.233V47.8115H630.251V95H675.226V131H719.713V95.623H675.27V47.8115H719.713V0H764.731V47.8115H720.287V95H764.731V47.8115H809.749V95H854.768V47.8115H899.785V95H944.803V47.8115H989.821V95H1034.84V47.8115H1079.86V95H1124.88V47.8115H1169.89V95H1214.91V47.8115H1169.89V0H1214.91V47.8115H1259.93V0H1304.95V47.8115H1349.96V95H1394.98V47.8115H1440V95.623H1394.98V131H1440V2018H1394.98V2056.81H1349.96V2018H1304.95V2056.81H1349.96V2104H1394.98V2056.81H1440V2104.62H1394.98V2151.81H1349.96V2104.62H1304.97V2152H1259.5V2104.62H1215.01V2152H1169.53V2104.62H1125.05V2152H1079.57V2104.62H1035.08V2152H989.605V2104.62H945.118V2152H899.642V2104.62H855.154V2152H809.678V2104.62H765.189V2152H719.713V2104.62H675.27V2056.81H719.713V2018H675.27V2056.81H630.251V2018H585.233V2056.81H540.216V2104H585.233V2056.81H630.251V2104H675.226V2152H629.749V2104.62H585.262V2152H539.785V2104.62H495.297V2152H449.821V2104.62H405.333V2152H359.856V2104.62H315.369V2152H269.893V2104.62H225.404V2152H179.929V2104.62H135.44V2152H89.9639V2104.62H45.4766V2152H0V2104H45.0176V2056.81H90.0361V2104H135.054V2056.81H180.071V2018H135.054V2056.81H90.0361V2018H45.0176V2056.81H0V95H45.0176V47.8115H90.0361V95H135.054V47.8115H180.071V0H225.09V47.8115ZM225.09 2056.81H180.072V2104H225.09V2056.81H270.107V2104H315.126V2056.81H360.144V2104H405.162V2056.81H450.18V2104H495.197V2056.81H540.215V2018H495.197V2056.81H450.18V2018H405.161V2056.81H360.144V2018H315.126V2056.81H270.107V2018H225.09V2056.81ZM764.731 2056.81H720.287V2104H764.731V2056.81H809.749V2104H854.768V2056.81H899.785V2104H944.803V2056.81H989.821V2104H1034.84V2056.81H1079.86V2104H1124.88V2056.81H1169.89V2104H1214.91V2056.81H1169.89V2018H1124.88V2056.81H1079.86V2018H1034.84V2056.81H989.821V2018H944.803V2056.81H899.785V2018H854.768V2056.81H809.749V2018H764.731V2056.81ZM1259.93 2104H1304.95V2056.81H1259.93V2104ZM1214.91 2056.81H1259.93V2018H1214.91V2056.81ZM45.4766 131H89.9639V95.623H45.4766V131ZM135.44 131H179.929V95.623H135.44V131ZM225.404 131H269.893V95.623H225.404V131ZM315.369 131H359.856V95.623H315.369V131ZM405.333 131H449.821V95.623H405.333V131ZM495.297 131H539.785V95.623H495.297V131ZM585.262 131H629.749V95.623H585.262V131ZM765.189 131H809.678V95.623H765.189V131ZM855.154 131H899.642V95.623H855.154V131ZM945.118 131H989.605V95.623H945.118V131ZM1035.08 131H1079.57V95.623H1035.08V131ZM1125.05 131H1169.53V95.623H1125.05V131ZM1215.01 131H1259.5V95.623H1215.01V131ZM1304.97 131H1349.96V95.623H1304.97V131ZM1259.93 95H1304.95V47.8115H1259.93V95ZM45.0176 47.8115H0V0H45.0176V47.8115ZM135.054 47.8115H90.0361V0H135.054V47.8115ZM315.126 47.8115H270.107V0H315.126V47.8115ZM405.161 47.8115H360.144V0H405.161V47.8115ZM495.197 47.8115H450.18V0H495.197V47.8115ZM675.27 47.8115H630.251V0H675.27V47.8115ZM854.768 47.8115H809.749V0H854.768V47.8115ZM944.803 47.8115H899.785V0H944.803V47.8115ZM1034.84 47.8115H989.821V0H1034.84V47.8115ZM1124.88 47.8115H1079.86V0H1124.88V47.8115ZM1394.98 47.8115H1349.96V0H1394.98V47.8115Z" fill="#F2E0C2"/>
</svg>
